<svg xmlns="http://www.w3.org/2000/svg" viewBox="0 0 80 84"><path d="M58,38 C67,42 68,55 62,70" fill="none" stroke="#243027" stroke-width="6.5" stroke-linecap="round"/><path d="M58,38 C66,42 67,54 61,69" fill="none" stroke="#8A5528" stroke-width="3.2" stroke-linecap="round"/><rect x="33" y="49" width="6" height="24" rx="3" fill="#8A5528" stroke="#243027" stroke-width="2.4"/><rect x="54" y="49" width="6" height="24" rx="3" fill="#8A5528" stroke="#243027" stroke-width="2.4"/><rect x="26" y="49" width="6" height="24" rx="3" fill="#A56A38" stroke="#243027" stroke-width="2.7"/><rect x="47" y="49" width="6" height="24" rx="3" fill="#A56A38" stroke="#243027" stroke-width="2.7"/><path d="M12,32 L13,23 Q15,15 23,17 L27,22 Q36,25 42,33 L57,33 Q63,34 62,45 L60,52 L34,52 Q26,52 26,44 L25,39 Q23,33 29,32 L20,33 Q13,33 12,32 Z" fill="#A56A38" stroke="#243027" stroke-width="2.7" stroke-linejoin="round"/><path d="M27,20 Q36,23 42,32 L37,34 Q31,26 24,25 Z" fill="#6E3F1C"/><path d="M22,19 L18,10 L27,16 Z" fill="#8A5528" stroke="#243027" stroke-width="2.2" stroke-linejoin="round"/><path d="M27,18 L25,9 L32,16 Z" fill="#A56A38" stroke="#243027" stroke-width="2.2" stroke-linejoin="round"/><circle cx="18" cy="26" r="2.4" fill="#243027"/></svg>