<svg xmlns="http://www.w3.org/2000/svg" viewBox="0 0 80 84"><path d="M20,50 C18,36 30,28 44,30 C58,32 64,42 62,50 C60,58 50,62 40,60 L26,66 C20,62 22,54 20,50 Z" fill="#4FA6D6" stroke="#243027" stroke-width="2.7" stroke-linejoin="round"/><path d="M20,50 C24,52 34,54 44,50 C50,47 52,54 46,58 C38,62 26,60 22,54 Z" fill="#E9A63C" stroke="#243027" stroke-width="2.4" stroke-linejoin="round"/><path d="M62,44 L72,46 L62,50 Z" fill="#F2A81C" stroke="#243027" stroke-width="2.2" stroke-linejoin="round"/><circle cx="54" cy="42" r="2.8" fill="#243027"/><path d="M30,66 L28,74 M38,64 L38,74" stroke="#E9A63C" stroke-width="3" stroke-linecap="round"/></svg>