<svg xmlns="http://www.w3.org/2000/svg" viewBox="0 0 80 84"><path d="M42,30 L58,20 M42,34 L60,28" fill="none" stroke="#EDE4CE" stroke-width="6" stroke-linecap="round"/><path d="M42,30 L58,20 M42,34 L60,28" fill="none" stroke="#243027" stroke-width="2" stroke-linecap="round" opacity="0.35"/><circle cx="60" cy="19" r="6" fill="#F3EDDC" stroke="#243027" stroke-width="2.7"/><circle cx="64" cy="26" r="6" fill="#F3EDDC" stroke="#243027" stroke-width="2.7"/><path d="M40,26 C50,30 50,44 40,52 C30,60 16,58 14,46 C12,34 24,24 34,26 C36,26 38,25 40,26 Z" fill="#C98A48" stroke="#243027" stroke-width="2.7" stroke-linejoin="round"/><path d="M40,26 C50,30 50,44 40,52 C34,56 27,57 22,55 C34,52 42,42 40,32 C39,29 39,27 40,26 Z" fill="#AF7338"/><path d="M22,40 q3,3 0,7" fill="none" stroke="#8A5A28" stroke-width="2" stroke-linecap="round"/></svg>