<svg xmlns="http://www.w3.org/2000/svg" viewBox="0 0 80 84"><path d="M20,50 L60,50 Q66,50 66,58 L66,67 Q66,71 62,71 L18,71 Q14,71 14,67 L14,58 Q14,50 20,50 Z" fill="#C0453C" stroke="#243027" stroke-width="3" stroke-linejoin="round"/><circle cx="40" cy="60" r="9.5" fill="#E8DEC8" stroke="#243027" stroke-width="2.4"/><circle cx="40" cy="60" r="3" fill="#C0453C" stroke="#243027" stroke-width="1.6"/><circle cx="40" cy="53.4" r="1.1" fill="#243027"/><circle cx="44.7" cy="55.3" r="1.1" fill="#243027"/><circle cx="46.6" cy="60" r="1.1" fill="#243027"/><circle cx="44.7" cy="64.7" r="1.1" fill="#243027"/><circle cx="35.3" cy="64.7" r="1.1" fill="#243027"/><circle cx="33.4" cy="60" r="1.1" fill="#243027"/><circle cx="35.3" cy="55.3" r="1.1" fill="#243027"/><path d="M18,44 C18,34 24,30 32,30 L48,30 C56,30 62,34 62,44 L54,44 C54,38 51,36 47,36 L33,36 C29,36 26,38 26,44 Z" fill="#2E3338" stroke="#243027" stroke-width="3" stroke-linejoin="round"/><ellipse cx="20" cy="45" rx="6" ry="4.5" fill="#2E3338" stroke="#243027" stroke-width="2.6"/><ellipse cx="60" cy="45" rx="6" ry="4.5" fill="#2E3338" stroke="#243027" stroke-width="2.6"/></svg>
